<?xml version="1.0" encoding="utf-8"?>
<!-- Generator: Adobe Illustrator 24.0.1, SVG Export Plug-In . SVG Version: 6.00 Build 0)  -->
<svg version="1.1" id="Layer_1" xmlns="http://www.w3.org/2000/svg" xmlns:xlink="http://www.w3.org/1999/xlink" x="0px" y="0px"
	 viewBox="0 0 200 200" style="enable-background:new 0 0 200 200;" xml:space="preserve">
<style type="text/css">
	.st0{fill:#FFFFFF;stroke:#ED1C24;stroke-width:3;stroke-miterlimit:10;}
</style>
<path class="st0" d="M176.4,50.2c0.2-1.8-1.3-3.7-3.2-4.6L92.3,5.1c-1.3-0.7-2.8-0.7-4.1,0L7.3,45.6c-3,2-2.5,6.3-2.5,6.8v86.3
	c0,1.6,0.8,3.1,2.2,3.9c0,0,79.1,47.8,80.5,48.4c2.8,1.4,4.5,1,5.8,0.3l26.3-15.2c2.2-1.3,2.4-3.3,2.1-6.8c-0.3-3.4-3.3-5.3-5.5-4
	c-2.2,1.3-19.6,11.8-19.6,11.8V98.3l69.8-40.6l7.3-4.4C175.2,52.3,176.1,51.1,176.4,50.2L176.4,50.2z M84.1,176.1l-67.2-41V59.7
	l67.2,38.6L84.1,176.1L84.1,176.1z M90.2,85.7L26.3,49.5l63.9-32l63.9,32L90.2,85.7L90.2,85.7z M195.4,149.4L159.4,171
	c-2,1.4-4.1-0.2-4.1-0.2c-0.2,0-35.8-21.4-35.8-21.4c-1-0.6-1.7-1.7-1.7-3v-38.6c0-1.2,0.6-3.4,3.2-4.4l34.9-19.3
	c1-0.5,2.1-0.5,3.1,0l34.9,19.3h-0.3c0.1,0,0.2,0,0.3,0.1l0.9,0.5c1.1,0.5,2.2,1.5,2.2,2.9v39.5C197,147.7,196.4,148.8,195.4,149.4
	L195.4,149.4z M131.3,107.2l25.9,14.6l26.3-14.6l-26.3-14.5L131.3,107.2z M162.4,159.9l26.5-16v-28.8l-26.5,15V159.9L162.4,159.9z
	 M153,159.5v-29.1l-26-14.7v28.2L153,159.5L153,159.5z"/>
</svg>
